<svg xmlns="http://www.w3.org/2000/svg" xmlns:xlink="http://www.w3.org/1999/xlink" xmlns:xodm="http://www.corel.com/coreldraw/odm/2003" xml:space="preserve" width="225.523mm" height="225.523mm" style="shape-rendering:geometricPrecision; text-rendering:geometricPrecision; image-rendering:optimizeQuality; fill-rule:evenodd; clip-rule:evenodd" viewBox="0 0 4468.3 4468.3">
 <defs>
  <style type="text/css">
   <![CDATA[
    .fil0 {fill:none}
    .fil1 {fill:#11AA01}
   ]]>
  </style>
 </defs>
 <g id="Camada_x0020_1">
  <metadata id="CorelCorpID_0Corel-Layer"></metadata>
  <g id="_1889846462128">
   <rect class="fil0" width="4468.3" height="4468.3"></rect>
   <path class="fil1" d="M511.68 2392.37l216.94 368.78c31.86,54.16 77.25,98.1 130.45,128.53 53.11,30.38 113.99,47.21 176.92,47.21l125.24 0 3.05 -8.74c28.69,-82.09 81.89,-150.87 149.71,-199.08 67.73,-48.14 149.99,-75.81 236.96,-75.81 86.97,0 169.23,27.67 236.95,75.81 67.83,48.21 121.03,117 149.73,199.09l3.05 8.73 925.33 0 3.05 -8.74c12.19,-34.91 29.06,-67.89 49.96,-98.04 21,-30.3 46,-57.75 74.37,-81.46l4.68 -3.91 0 -1417.96c0,-68.42 -27.83,-130.47 -72.77,-175.41 -44.94,-44.94 -106.98,-72.77 -175.41,-72.77l-1226.35 0c-74.39,0 -147.21,17.6 -212.67,49.97 -65.5,32.38 -123.7,79.52 -168.83,138.58l-377.15 493.56c-6.93,9.06 -16.87,14.47 -27.35,15.87 -10.01,1.34 -20.49,-0.95 -29.31,-7.18l-0.14 -0.07 -1.12 -0.86c-9.06,-6.93 -14.46,-16.9 -15.86,-27.43 -1.39,-10.47 1.21,-21.47 8.12,-30.52l377.12 -493.56c52.88,-69.21 121.14,-124.49 197.94,-162.46 76.84,-37.99 162.21,-58.67 249.25,-58.67l1226.35 0c91.23,0 173.97,37.12 233.89,97.05 59.92,59.92 97.05,142.66 97.05,233.89l0 161.49 405.43 0c100.97,0 192.54,41.08 258.85,107.39 66.31,66.32 107.39,157.88 107.39,258.85l0 165.37 10.86 1.83c33.08,5.58 61.82,22.76 82.28,46.94 20.45,24.17 32.65,55.31 32.65,88.83l0 82.94 4.58 3.91c30.82,26.28 55.09,58.6 71.66,94.47 16.58,35.9 25.45,75.32 25.45,115.78l0 320.93c0,48.22 -14.3,94.15 -39.58,132.96 -25.32,38.87 -61.72,70.54 -105.86,90.14l-6.74 3 -0.89 7.46c-5.83,48.98 -21.44,91.16 -47.55,125.57 -25.44,33.52 -60.58,59.25 -106.07,76.26 -19.77,7.4 -43.89,13.54 -68.22,17.33 -23.1,3.6 -46.49,5.12 -66.7,3.64l-8.96 -0.66 -3.85 8.08c-13.28,27.86 -29.69,54.02 -48.83,78.08 -19.1,24.02 -41.04,45.98 -65.43,65.49 -8.94,7.15 -19.88,9.99 -30.32,8.82 -9.91,-1.11 -19.44,-5.82 -26.5,-13.88l-0.02 0.02 -1.19 -1.46c-7.14,-8.94 -10,-19.87 -8.83,-30.32 1.1,-9.89 5.8,-19.42 13.86,-26.48l-0.02 -0.02 1.46 -1.19c39.01,-31.2 69.74,-70.1 90.71,-113.69 20.92,-43.48 32.11,-91.74 32.11,-141.78 0,-90.12 -36.66,-171.85 -95.84,-231.04 -59.18,-59.19 -140.89,-95.85 -231.02,-95.85 -90.12,0 -171.84,36.66 -231.02,95.85 -59.19,59.19 -95.84,140.92 -95.84,231.04 0,90.12 36.66,171.83 95.84,231.02 59.19,59.18 140.9,95.84 231.02,95.84 11.43,0 21.78,4.63 29.26,12.12 7.49,7.49 12.12,17.83 12.12,29.26 0,11.38 -4.66,21.72 -12.18,29.24 -7.5,7.49 -17.83,12.11 -29.2,12.11 -78.85,0 -154.12,-22.73 -218.22,-63.18 -64.24,-40.54 -117.24,-98.91 -151.32,-170.06l-3.54 -7.39 -958.62 0 -3.54 7.39c-34.09,71.14 -87.08,129.52 -151.32,170.06 -64.11,40.45 -139.38,63.18 -218.23,63.18 -78.85,0 -154.12,-22.73 -218.22,-63.18 -64.25,-40.54 -117.24,-98.91 -151.32,-170.06l-3.66 -7.65 -8.51 0.2c-18.49,0.44 -39.45,-2.12 -59.85,-6.54 -22.1,-4.79 -43.95,-11.81 -61.56,-19.6 -41.66,-18.42 -73.87,-44.66 -97.46,-77.46 -24.52,-34.09 -39.49,-74.96 -45.9,-121.21l-1.11 -8.01 -7.67 -2.6c-49.94,-16.93 -96.25,-42.62 -136.78,-75.49 -40.28,-32.67 -74.83,-72.48 -101.53,-117.87l-216.94 -368.78c-18.99,-32.28 -32.99,-66.91 -41.67,-102.81 -8.65,-35.81 -12.03,-72.84 -9.78,-110.03 2.25,-37.22 10.06,-73.6 22.97,-108.12 12.98,-34.7 31.06,-67.43 53.77,-97.15l87.06 -113.93 0.17 -0.17c6.86,-8.29 16.35,-13.25 26.33,-14.59 10.49,-1.41 21.51,1.18 30.57,8.11l1.12 0.86 0.18 0.18c8.27,6.85 13.23,16.33 14.58,26.33 1.42,10.49 -1.18,21.51 -8.11,30.58l-86.2 112.81c-36.1,47.24 -56.1,103.12 -59.54,160 -3.44,56.94 9.67,114.86 39.81,166.09zm808.26 439.47c-59.19,59.19 -95.84,140.92 -95.84,231.04 0,90.12 36.66,171.83 95.84,231.02 59.19,59.18 140.9,95.84 231.02,95.84 90.12,0 171.83,-36.66 231.02,-95.84 59.18,-59.19 95.84,-140.9 95.84,-231.02 0,-90.12 -36.65,-171.85 -95.84,-231.04 -59.18,-59.19 -140.89,-95.85 -231.02,-95.85 -90.12,0 -171.84,36.66 -231.02,95.85zm-312.54 186.81l-19.31 -1.29 5.93 18.41c9.93,30.86 28.63,57.44 52.93,77.07 24.28,19.61 54.1,32.32 86.35,35.49l17.15 1.69 -2.96 -17.05c-2.27,-13.12 -2.96,-28.25 -3.58,-41.81l-0.2 -4.35c-0.24,-5.07 -0.47,-10.69 -0.68,-16.86 -0.18,-5.33 -0.33,-10.9 -0.44,-16.73l-0.09 -3.7c-0.13,-5.24 -0.28,-10.79 0.02,-15.74l1 -14.19 -75.78 -0.32c-5.48,-0.03 -11.13,-0 -16.82,0.02 -14.66,0.07 -29.69,0.13 -43.39,-0.66l-0.13 0zm950.55 72.85c-0.63,13.72 -1.34,29.07 -3.65,42.26l-2.69 15.35 903.49 0 -2.69 -15.35c-2.31,-13.19 -3.03,-28.54 -3.66,-42.26l-0.2 -4.25c-0.25,-5.12 -0.48,-10.78 -0.7,-17 -0.19,-5.37 -0.34,-11 -0.46,-16.88l-0.1 -3.75c-0.14,-5.26 -0.28,-10.85 0.02,-15.83l0.99 -14.17 -889.94 0 1 14.2c0.3,4.99 0.16,10.57 0.02,15.84l-0.09 3.72c-0.12,5.89 -0.27,11.51 -0.46,16.88 -0.21,6.22 -0.45,11.88 -0.69,17l-0.2 4.25zm1122.89 -830.66l0 431.22 18.12 -7.53c24.94,-10.37 50.64,-18.19 76.78,-23.39 26.28,-5.24 53.06,-7.88 80,-7.88 86.97,0 169.24,27.67 236.97,75.81 67.82,48.21 121.03,116.99 149.71,199.08l3.05 8.74 190.43 0c39.59,0 75.85,-14.28 103.9,-37.94 28.56,-24.1 48.67,-57.87 55.19,-96.18l2.29 -13.44 0 -334.73c0,-15.42 -1.78,-30.52 -5.25,-45.03 -3.5,-14.62 -8.77,-28.93 -15.71,-42.62l-9.95 -19.61 -12.53 18.1c-12.94,18.7 -29.96,33.65 -49.43,43.9 -19.46,10.25 -41.33,15.84 -63.97,15.84 -27.06,0 -51.11,-5.28 -71.58,-16.99 -20.8,-11.89 -37.44,-30.11 -49.29,-55.79 -5.18,-11.24 -9.63,-24.92 -12.64,-38.76 -2.9,-13.27 -4.54,-27.06 -4.33,-39.37l0.29 -13.43 -622.05 0zm704.43 -103.36l0 129.8c0,15.19 6.19,28.98 16.18,38.97 9.99,9.99 23.77,16.18 38.97,16.18 15.2,0 28.99,-6.18 38.98,-16.17 9.99,-9.99 16.17,-23.77 16.17,-38.98l0 -129.8c0,-15.21 -6.18,-29 -16.17,-38.98 -9.98,-9.98 -23.77,-16.16 -38.98,-16.16 -15.2,0 -28.99,6.18 -38.98,16.17 -9.98,9.99 -16.17,23.77 -16.17,38.98zm-704.43 -387.99l0 408.66 495.07 -0 0 -252.89c0,-42.94 -17.47,-81.88 -45.68,-110.08 -28.2,-28.21 -67.15,-45.68 -110.08,-45.68l-339.31 0zm577.8 155.79l0 252.8 44.75 0 -0.85 -14.01c-0.37,-7.1 0.15,-15.04 1.22,-22.85 1.18,-8.61 3.07,-17.26 5.18,-24.5 4.57,-15.67 11.39,-30.04 20.71,-42.66 8.98,-12.15 20.19,-22.59 33.86,-30.92l6.27 -3.82 0 -184.82c0,-78.17 -31.8,-149.04 -83.13,-200.37 -51.34,-51.33 -122.22,-83.12 -200.39,-83.12l-405.43 0 0 115.71 339.28 0c65.76,0 125.39,26.76 168.58,69.95 43.19,43.19 69.95,102.84 69.95,168.6zm6.61 1159.52c-1.09,16.75 -3.34,33.27 -6.06,48.92l-2.46 14.12 14.18 1.28c8.84,0.8 20.39,-0.14 32.19,-2.04 14.04,-2.26 28.24,-5.94 38.71,-9.68 24.38,-8.73 45.01,-21.84 61.15,-38.96 15.84,-16.82 27.53,-37.67 34.33,-62.21l4.61 -16.61 -179.47 0 1.81 14.7c2.02,16.39 2.12,33.47 1.02,50.49zm-2036.05 -100.15c-20.04,-20.04 -47.71,-32.45 -78.23,-32.45 -30.52,0 -58.19,12.41 -78.23,32.45 -20.04,20.04 -32.45,47.71 -32.45,78.23 0,30.51 12.41,58.19 32.45,78.23 20.04,20.04 47.71,32.45 78.23,32.45 30.51,0 58.18,-12.41 78.22,-32.46 20.04,-20.04 32.46,-47.72 32.46,-78.22 0,-30.51 -12.41,-58.19 -32.45,-78.23zm-213.84 -57.4c34.75,-34.74 82.73,-56.26 135.62,-56.26 52.89,0 100.86,21.52 135.6,56.26 34.74,34.74 56.26,82.71 56.26,135.6 0,52.9 -21.52,100.88 -56.26,135.62l-0.04 -0.04c-34.77,34.76 -82.73,56.3 -135.56,56.3 -52.9,0 -100.88,-21.52 -135.62,-56.27 -34.74,-34.75 -56.27,-82.72 -56.27,-135.62 0,-52.89 21.53,-100.86 56.27,-135.59zm1915.73 57.39c-20.04,-20.04 -47.71,-32.45 -78.23,-32.45 -30.52,0 -58.19,12.41 -78.23,32.45 -20.04,20.04 -32.45,47.71 -32.45,78.23 0,30.51 12.41,58.19 32.45,78.23 20.04,20.04 47.71,32.45 78.23,32.45 30.51,0 58.19,-12.41 78.23,-32.45 20.04,-20.04 32.45,-47.71 32.45,-78.23 0,-30.52 -12.41,-58.19 -32.45,-78.23zm-213.85 -57.39c34.75,-34.74 82.73,-56.26 135.62,-56.26 52.89,0 100.87,21.52 135.62,56.26 34.74,34.74 56.27,82.7 56.27,135.59 0,52.9 -21.52,100.87 -56.27,135.62 -34.74,34.74 -82.72,56.27 -135.62,56.27 -52.9,0 -100.88,-21.52 -135.62,-56.27 -34.74,-34.75 -56.27,-82.72 -56.27,-135.62 0,-52.89 21.53,-100.86 56.27,-135.59zm-1075.15 -1546.63l-333.96 0.77c-17.27,2.58 -34.45,12.18 -44.67,26.55l-83.31 141.2c-28.5,-16.32 -56.96,-34 -85.41,-50.34l136.76 246.26 282.11 -3.78 -86.49 -49.08 119.77 -208.36c21.44,-36.92 34.63,-65.54 71.28,-90.26 7.51,-5.14 15.64,-9.26 23.93,-12.96zm242.52 802.49l-308.13 0.29 0.09 286.98 235.73 -0.06c58.41,-0.05 110.19,-36.95 129,-92.61 5.16,-14.98 7.35,-30.89 6.89,-46.71 -2.16,-41.91 -21.42,-73.08 -41.25,-108.04 -7.49,-13.25 -14.81,-26.6 -22.32,-39.86zm-336.6 -641.69l153.39 264.88 248.09 -143.94 -137.86 -230.84c-8.56,-9.08 -18.53,-16.73 -29.23,-23.11 -60.54,-34.79 -135.31,-14.35 -176.77,38.87l-57.62 94.14zm-196.24 543.57l-0.19 100.87 -315.6 -3.72c-24.74,-5.36 -40.19,-12.83 -60.41,-26.88 4.7,9.84 10.63,18.98 15.93,28.49l161.56 271.12c11.24,8.42 24.72,13.9 38.76,15.08l159.69 0.54 0.31 99.32 145.49 -242.31 -145.53 -242.52zm-284.71 -337.08l-117.97 203.61c-20.9,36.6 -24.53,76.91 -7.99,115.97 11.53,27.54 31.28,51.76 56.65,67.63 21.93,13.47 51.89,19.28 77.14,19.52l87.11 -0.02 153.21 -265.23 -248.15 -141.49zm799.42 59.75l-137.69 247.9 88.47 -50.2 125.5 217.33c11.54,20.29 18.98,30.73 26.57,53.33 8.54,25.43 11.86,43.87 8.95,70.87 1.49,-2.66 2.99,-5.31 4.5,-7.92l158.14 -272.04c6.14,-11.6 9.55,-24.82 8.62,-37.98 -1.3,-13.8 -6.21,-27.05 -13.72,-38.66l-73.1 -128.1 85.42 -49.14 -281.66 -5.4z"></path>
  </g>
 </g>
</svg>