<svg xmlns="http://www.w3.org/2000/svg" xmlns:xlink="http://www.w3.org/1999/xlink" xmlns:xodm="http://www.corel.com/coreldraw/odm/2003" xml:space="preserve" width="389.912mm" height="251.496mm" style="shape-rendering:geometricPrecision; text-rendering:geometricPrecision; image-rendering:optimizeQuality; fill-rule:evenodd; clip-rule:evenodd" viewBox="0 0 38991.2 25149.6">
 <defs>
  <style type="text/css">
   <![CDATA[
    .fil24 {fill:#FEFEFE;fill-rule:nonzero}
    .fil5 {fill:#064200;fill-rule:nonzero}
    .fil15 {fill:#086900;fill-rule:nonzero}
    .fil4 {fill:#11AA01;fill-rule:nonzero}
    .fil2 {fill:#42CF01;fill-rule:nonzero}
    .fil21 {fill:#7D97F3;fill-rule:nonzero}
    .fil23 {fill:#81FF02;fill-rule:nonzero}
    .fil18 {fill:#90B3F9;fill-rule:nonzero}
    .fil19 {fill:#BCD0FB;fill-rule:nonzero}
    .fil3 {fill:#BCFF78;fill-rule:nonzero}
    .fil1 {fill:#BDFF79;fill-rule:nonzero}
    .fil20 {fill:white;fill-rule:nonzero}
    .fil22 {fill:white;fill-rule:nonzero;fill-opacity:0.368627}
    .fil8 {fill:#FEFEFE;fill-rule:nonzero;fill-opacity:0.501961}
    .fil0 {fill:url(#id0);fill-rule:nonzero}
    .fil6 {fill:url(#id1);fill-rule:nonzero}
    .fil9 {fill:url(#id2);fill-rule:nonzero}
    .fil14 {fill:url(#id3);fill-rule:nonzero}
    .fil11 {fill:url(#id4);fill-rule:nonzero}
    .fil10 {fill:url(#id5);fill-rule:nonzero}
    .fil17 {fill:url(#id6);fill-rule:nonzero}
    .fil13 {fill:url(#id7);fill-rule:nonzero}
    .fil16 {fill:url(#id8);fill-rule:nonzero}
    .fil7 {fill:url(#id9);fill-rule:nonzero}
    .fil12 {fill:url(#id10);fill-rule:nonzero}
   ]]>
  </style>
  <linearGradient id="id0" gradientUnits="userSpaceOnUse" x1="-55.33" y1="11671.64" x2="38262.88" y2="12695.14">
   <stop offset="0" style="stop-opacity:1; stop-color:#BCFF78"></stop>
   <stop offset="0.211765" style="stop-opacity:0.690196; stop-color:#BCFF78"></stop>
   <stop offset="1" style="stop-opacity:0.376471; stop-color:#BCFF78"></stop>
  </linearGradient>
  <linearGradient id="id1" gradientUnits="userSpaceOnUse" x1="20038.59" y1="24648.34" x2="24353.31" y2="24648.34">
   <stop offset="0" style="stop-opacity:1; stop-color:#2A3581"></stop>
   <stop offset="1" style="stop-opacity:1; stop-color:#150E42"></stop>
  </linearGradient>
  <linearGradient id="id2" gradientUnits="userSpaceOnUse" x1="17056.51" y1="10512.78" x2="17903.18" y2="13687.78">
   <stop offset="0" style="stop-opacity:1; stop-color:#42CF01"></stop>
   <stop offset="1" style="stop-opacity:1; stop-color:#086900"></stop>
  </linearGradient>
  <linearGradient id="id3" gradientUnits="userSpaceOnUse" x1="17886.62" y1="12550.46" x2="13926.3" y2="5553.58">
   <stop offset="0" style="stop-opacity:1; stop-color:#11AA01"></stop>
   <stop offset="1" style="stop-opacity:1; stop-color:#42CF01"></stop>
  </linearGradient>
  <linearGradient id="id4" gradientUnits="userSpaceOnUse" x1="10309.21" y1="5705.45" x2="7602.06" y2="8748.89">
   <stop offset="0" style="stop-opacity:1; stop-color:#086900"></stop>
   <stop offset="1" style="stop-opacity:1; stop-color:#42CF01"></stop>
  </linearGradient>
  <linearGradient id="id5" gradientUnits="userSpaceOnUse" xlink:href="#id3" x1="13669.84" y1="15927.51" x2="17082.8" y2="15927.51">
  </linearGradient>
  <linearGradient id="id6" gradientUnits="userSpaceOnUse" x1="7822.02" y1="12416.55" x2="5786.28" y2="17947.61">
   <stop offset="0" style="stop-opacity:1; stop-color:#064200"></stop>
   <stop offset="1" style="stop-opacity:1; stop-color:#11AA01"></stop>
  </linearGradient>
  <linearGradient id="id7" gradientUnits="userSpaceOnUse" xlink:href="#id4" x1="3209.01" y1="16350.29" x2="7531.5" y2="9948.34">
  </linearGradient>
  <linearGradient id="id8" gradientUnits="userSpaceOnUse" xlink:href="#id6" x1="8764.49" y1="14083.84" x2="6612.34" y2="20759.22">
  </linearGradient>
  <linearGradient id="id9" gradientUnits="userSpaceOnUse" xlink:href="#id4" x1="11835.33" y1="19579.11" x2="17891.37" y2="23075.56">
  </linearGradient>
  <linearGradient id="id10" gradientUnits="userSpaceOnUse" xlink:href="#id2" x1="9648.17" y1="15592.78" x2="6684.84" y2="15381.12">
  </linearGradient>
 </defs>
 <g id="Illustration">
  <metadata id="CorelCorpID_0Corel-Layer"></metadata>
  <g id="_2873776172288">
   <path class="fil0" d="M7135.75 1539.91c-3038.13,2319.74 851.22,5500.37 -1244.11,6789.99 -2095.33,1289.62 -10692.55,3687.26 -2249.29,9108.31 8443.25,5421.05 8584.83,8870.95 14803.87,5739.86 6219.03,-3131.08 5794.97,-3733.91 10777.75,-1377.77 4982.79,2356.13 10349.15,-967.72 8669.23,-5122.31 -1679.93,-4154.58 -2822.52,-4133.09 -704.07,-6703.11 2118.46,-2570.02 -883.49,-9912.91 -8082.21,-4486.32 -7198.71,5426.6 -10205.89,379.25 -10922.05,-1739.08 -716.17,-2118.32 -6247.86,-5875.53 -11049.12,-2209.57z"></path>
   <g>
    <path class="fil1" d="M27467.9 20934.19c0,0 7115.42,-8044.08 8820.04,-15521.57 114.59,-502.66 -370.13,-934 -855,-758.79 -3242.17,1171.53 -12492.05,5554.3 -7965.04,16280.36z"></path>
    <path class="fil2" d="M27418.88 19695.03c-5.69,35.22 -57.38,30.33 -56.47,-5.33 33.51,-1314.88 835.04,-6872.09 6249.3,-12531.56 17.4,-18.17 46.01,6.08 30.24,25.69 -1161.07,1445.19 -5324.04,6941.98 -6223.07,12511.2z"></path>
   </g>
   <g>
    <path class="fil2" d="M27402.68 24672.96c0,0 8330.54,-5918.06 11524.63,-12479.28 214.72,-441.06 -141.34,-945.43 -628.48,-887.77 -3257.41,385.64 -12775.42,2449.96 -10896.15,13367.05z"></path>
    <path class="fil1" d="M27624.81 23514.06c-12.88,31.41 -59.73,15.72 -51.18,-17.13 314.94,-1211.25 2257.55,-6187.97 8496.8,-10263.52 20.04,-13.1 41.32,15.56 22.47,30.33 -1387.97,1088.56 -6432.54,5283.52 -8468.09,10250.32z"></path>
   </g>
   <g>
    <path class="fil3" d="M12383.43 21176.6c0,0 -7115.43,-8044.09 -8820.05,-15521.57 -114.58,-502.66 370.14,-934 855,-758.8 3242.18,1171.54 12492.06,5554.31 7965.05,16280.37z"></path>
    <path class="fil2" d="M12432.45 19937.44c5.68,35.22 57.37,30.33 56.47,-5.34 -33.52,-1314.87 -835.04,-6872.08 -6249.31,-12531.55 -17.39,-18.17 -46,6.07 -30.24,25.69 1161.07,1445.19 5324.05,6941.98 6223.08,12511.2z"></path>
   </g>
   <polygon class="fil4" points="28446.63,24290.59 25384.18,24290.59 25719.31,9182.25 25715.4,8754.83 25723.43,8256.15 25733.5,7828.71 25825.8,5195.41 25826.19,5126.72 28232.87,5126.72 28232.87,9182.25 "></polygon>
   <path class="fil5" d="M28578.16 4837.58c0,-78.69 -63.79,-142.48 -142.48,-142.48l-2909.03 0c-78.68,0 -142.47,63.79 -142.47,142.48l0 232.99c0,78.69 63.79,142.48 142.47,142.48l2909.03 0c78.69,0 142.48,-63.79 142.48,-142.48l0 -232.99z"></path>
   <path class="fil5" d="M29138.53 24490.97c0,-106.29 -86.17,-192.47 -192.47,-192.47l-3929.78 0c-106.29,0 -192.47,86.18 -192.47,192.47l0 314.74c0,106.3 86.18,192.47 192.47,192.47l3929.78 0c106.3,0 192.47,-86.17 192.47,-192.47l0 -314.74z"></path>
   <polygon class="fil5" points="28232.87,7889.08 28232.87,8234.38 25713.65,8234.38 25728.61,7889.08 "></polygon>
   <polygon class="fil5" points="28232.87,8665.99 28232.87,9183.94 25680.16,9183.94 25695.84,8665.99 "></polygon>
   <polygon class="fil4" points="23661.42,24290.59 20598.96,24290.59 20934.09,9182.25 20930.18,8754.83 20938.22,8256.15 20948.29,7828.71 21040.58,5195.41 21040.97,5126.72 23447.65,5126.72 23447.65,9182.25 "></polygon>
   <path class="fil5" d="M23792.94 4837.58c0,-78.69 -63.79,-142.48 -142.48,-142.48l-2909.03 0c-78.67,0 -142.47,63.79 -142.47,142.48l0 232.99c0,78.69 63.8,142.48 142.47,142.48l2909.03 0c78.69,0 142.48,-63.79 142.48,-142.48l0 -232.99z"></path>
   <path class="fil6" d="M24353.32 24490.97c0,-106.29 -86.18,-192.47 -192.47,-192.47l-3929.79 0c-106.29,0 -192.47,86.18 -192.47,192.47l0 314.74c0,106.3 86.18,192.47 192.47,192.47l3929.79 0c106.29,0 192.47,-86.17 192.47,-192.47l0 -314.74z"></path>
   <polygon class="fil5" points="23447.65,7889.08 23447.65,8234.38 20928.43,8234.38 20943.39,7889.08 "></polygon>
   <polygon class="fil5" points="23447.65,8665.99 23447.65,9183.94 20894.95,9183.94 20910.62,8665.99 "></polygon>
   <g>
    <path class="fil7" d="M26340.17 13954.94l-3595.74 2469.23 0 -1918.23c0,-289.22 -293.58,-464.5 -517.93,-309.22l-3218.34 2227.45 0 -1903.18c0,-292.95 -297.75,-470.11 -524.57,-312.12l-3211.7 2237.1 0 -1865c0,-328.8 -323.31,-537.98 -588.98,-381.06l-2691.16 1589.5c-448.83,265.09 -722.84,781.76 -709.1,1337.03l188.88 7637.8c5.31,215.33 180.25,386.31 390.68,385.35l14589.01 -68.23c207.91,-0.96 376.97,-175.77 377.63,-389.78l32.36 -10439.15c0.05,-13.89 -0.59,-27.58 -1.86,-41.04 -25.04,-265.5 -311.69,-398.94 -519.18,-256.45z"></path>
    <g>
     <g>
      <path class="fil8" d="M13016.41 18342.35l-463.92 0c-21.65,0 -42.35,8.56 -57.36,16.66 -14.99,8.11 -22.97,21.02 -22.11,32.24l56.32 746.5c1.7,22.15 36.77,55.35 79.46,55.35l452.54 0c21.53,0 42.15,-19.24 57.13,-27.27 14.98,-8.03 23.05,-26.22 22.37,-37.39l-44.93 -738.47c-1.37,-22.27 -36.56,-47.62 -79.5,-47.62z"></path>
      <path class="fil8" d="M15024.21 18342.35l-464.04 0c-21.28,0 -41.67,8.42 -56.62,16.28 -14.94,7.86 -23.18,20.51 -22.9,31.55l19.63 746.51c0.6,22.57 36.02,56.41 79.5,56.41l452.65 0c21.16,0 41.47,-19.1 56.4,-26.89 14.92,-7.79 23.24,-25.71 23.13,-36.7l-8.23 -738.47c-0.26,-22.69 -35.78,-48.69 -79.52,-48.69z"></path>
      <path class="fil8" d="M16789.62 18342.35l-464.01 0c-43.65,0 -79.14,22.24 -79.53,44.89l-12.66 732.79c-0.19,11.02 8.09,37.32 23.04,45.13 14.93,7.83 35.27,27.94 56.49,27.94l452.63 0c43.4,0 78.77,-32.77 79.52,-55.28l24.04 -738.16c0.36,-11.06 -7.84,-29.41 -22.81,-37.31 -14.94,-7.89 -35.39,-20 -56.71,-20z"></path>
      <path class="fil8" d="M18612.36 18359.01c-15.01,-8.1 -35.71,-16.66 -57.35,-16.66l-463.94 0c-42.93,0 -78.11,21.67 -79.49,43.94l-44.92 732.8c-0.69,11.16 7.37,37.71 22.36,45.74 14.98,8.02 35.59,28.27 57.13,28.27l452.54 0c42.69,0 77.75,-32.2 79.47,-54.34l56.31 -740.15c0.87,-11.22 -7.12,-31.49 -22.11,-39.6z"></path>
     </g>
     <g>
      <path class="fil8" d="M20255.16 18342.35l-463.92 0c-21.65,0 -42.34,8.56 -57.34,16.66 -15.01,8.11 -22.99,21.02 -22.11,32.24l56.31 746.5c1.7,22.15 36.77,55.35 79.47,55.35l452.53 0c21.54,0 42.15,-19.24 57.13,-27.27 14.98,-8.03 23.04,-26.22 22.36,-37.39l-44.92 -738.47c-1.37,-22.27 -36.56,-47.62 -79.51,-47.62z"></path>
      <path class="fil8" d="M22262.97 18342.35l-464.03 0c-21.28,0 -41.69,8.42 -56.62,16.28 -14.95,7.86 -23.2,20.51 -22.91,31.55l19.63 746.51c0.6,22.57 36.02,56.41 79.51,56.41l452.64 0c21.17,0 41.47,-19.1 56.4,-26.89 14.92,-7.79 23.25,-25.71 23.13,-36.7l-8.24 -738.47c-0.25,-22.69 -35.78,-48.69 -79.51,-48.69z"></path>
      <path class="fil8" d="M24028.39 18342.35l-464.02 0c-43.64,0 -79.13,22.24 -79.52,44.89l-12.67 732.79c-0.19,11.02 8.11,37.32 23.04,45.13 14.93,7.83 35.27,27.94 56.47,27.94l452.65 0c43.39,0 78.78,-32.77 79.52,-55.28l24.04 -738.16c0.37,-11.06 -7.85,-29.41 -22.81,-37.31 -14.94,-7.89 -35.38,-20 -56.7,-20z"></path>
      <path class="fil8" d="M25851.12 18359.01c-14.99,-8.1 -35.71,-16.66 -57.35,-16.66l-463.93 0c-42.94,0 -78.12,21.67 -79.49,43.94l-44.93 732.8c-0.69,11.16 7.39,37.71 22.36,45.74 14.99,8.02 35.6,28.27 57.14,28.27l452.53 0c42.68,0 77.77,-32.2 79.46,-54.34l56.32 -740.15c0.87,-11.22 -7.11,-31.49 -22.11,-39.6z"></path>
     </g>
    </g>
    <g>
     <g>
      <path class="fil8" d="M13016.41 19932.88l-463.92 0c-21.65,0 -42.35,8.03 -57.36,16.13 -14.99,8.09 -22.97,20.74 -22.11,31.95l56.32 728.44c1.7,22.13 36.77,37.25 79.46,37.25l452.54 0c21.53,0 42.15,-1.3 57.13,-9.33 14.98,-8.02 23.05,-17.25 22.37,-28.41l-44.93 -733.44c-1.37,-22.27 -36.56,-42.59 -79.5,-42.59z"></path>
      <path class="fil8" d="M15024.21 19932.88l-464.04 0c-21.28,0 -41.67,7.87 -56.62,15.74 -14.94,7.86 -23.18,20.23 -22.9,31.28l19.63 728.42c0.6,22.56 36.02,38.33 79.5,38.33l452.65 0c21.16,0 41.47,-1.15 56.4,-8.95 14.92,-7.78 23.24,-16.73 23.13,-27.71l-8.23 -733.44c-0.26,-22.7 -35.78,-43.67 -79.52,-43.67z"></path>
      <path class="fil8" d="M16789.62 19932.88l-464.01 0c-43.65,0 -79.14,21.7 -79.53,44.35l-12.66 732.52c-0.19,11.01 8.09,19.23 23.04,27.05 14.93,7.82 35.27,9.85 56.49,9.85l452.63 0c43.4,0 78.77,-14.82 79.52,-37.34l24.04 -729.18c0.36,-11.07 -7.84,-24.38 -22.81,-32.28 -14.94,-7.89 -35.39,-14.97 -56.71,-14.97z"></path>
      <path class="fil8" d="M18612.36 19949.01c-15.01,-8.1 -35.71,-16.13 -57.35,-16.13l-463.94 0c-42.93,0 -78.11,21.13 -79.49,43.4l-44.92 732.52c-0.69,11.18 7.37,19.64 22.36,27.66 14.98,8.03 35.59,10.19 57.13,10.19l452.54 0c42.69,0 77.75,-14.26 79.47,-36.39l56.31 -730.9c0.87,-11.23 -7.12,-22.26 -22.11,-30.35z"></path>
     </g>
     <g>
      <path class="fil8" d="M20255.16 19932.88l-463.92 0c-21.65,0 -42.34,8.03 -57.34,16.13 -15.01,8.09 -22.99,20.74 -22.11,31.95l56.31 728.44c1.7,22.13 36.77,37.25 79.47,37.25l452.53 0c21.54,0 42.15,-1.3 57.13,-9.33 14.98,-8.02 23.04,-17.25 22.36,-28.41l-44.92 -733.44c-1.37,-22.27 -36.56,-42.59 -79.51,-42.59z"></path>
      <path class="fil8" d="M22262.97 19932.88l-464.03 0c-21.28,0 -41.69,7.87 -56.62,15.74 -14.95,7.86 -23.2,20.23 -22.91,31.28l19.63 728.42c0.6,22.56 36.02,38.33 79.51,38.33l452.64 0c21.17,0 41.47,-1.15 56.4,-8.95 14.92,-7.78 23.25,-16.73 23.13,-27.71l-8.24 -733.44c-0.25,-22.7 -35.78,-43.67 -79.51,-43.67z"></path>
      <path class="fil8" d="M24028.39 19932.88l-464.02 0c-43.64,0 -79.13,21.7 -79.52,44.35l-12.67 732.52c-0.19,11.01 8.11,19.23 23.04,27.05 14.93,7.82 35.27,9.85 56.47,9.85l452.65 0c43.39,0 78.78,-14.82 79.52,-37.34l24.04 -729.18c0.37,-11.07 -7.85,-24.38 -22.81,-32.28 -14.94,-7.89 -35.38,-14.97 -56.7,-14.97z"></path>
      <path class="fil8" d="M25851.12 19949.01c-14.99,-8.1 -35.71,-16.13 -57.35,-16.13l-463.93 0c-42.94,0 -78.12,21.13 -79.49,43.4l-44.93 732.52c-0.69,11.18 7.39,19.64 22.36,27.66 14.99,8.03 35.6,10.19 57.14,10.19l452.53 0c42.68,0 77.77,-14.26 79.46,-36.39l56.32 -730.9c0.87,-11.23 -7.11,-22.26 -22.11,-30.35z"></path>
     </g>
    </g>
   </g>
   <g>
    <path class="fil9" d="M15106.67 10640.14l2911.61 5359.42 2178.52 -3887.22c241.57,-431.04 249.03,-954.93 19.84,-1392.67l-1341.12 -2561.42c-111.58,-213.1 -417.72,-209.88 -524.79,5.52l-929.55 1870.1 -1940.49 -16.52c-321.25,-2.73 -527.38,340.5 -374.02,622.79z"></path>
    <path class="fil10" d="M19768.23 12877.06l-447.99 306.78c-433.79,297.06 -948.25,453.92 -1473.98,449.45l-4051.23 -34.49 7.89 -926.85c1,-116.74 -153.79,-158.63 -211.8,-57.32l-1889.05 3298.76 1850.42 3303.21c55.56,99.19 206.27,64.01 212.18,-49.53l57.08 -1097.59 1883.85 16.04c754.44,6.43 1450.93,-403.72 1811.25,-1066.59l2251.38 -4141.87z"></path>
    <path class="fil11" d="M10458.71 8817.9l3185.59 -5201.24 -4455.69 56.96c-494.07,6.32 -951.52,261.8 -1216.01,679.16l-1547.69 2442.15c-128.76,203.18 27.09,466.69 267.17,451.72l2084.33 -130.04 955.94 1688.78c158.26,279.58 558.57,286.47 726.36,12.51z"></path>
    <path class="fil12" d="M11103.68 13662.38l-6097.2 -158.19 2277.18 3830.27c252.5,424.73 702.48,693.13 1196.17,713.51l2888.81 119.26c240.34,9.93 390.62,-256.8 257.61,-457.23l-1154.78 -1740.06 984.56 -1672.26c162.99,-276.85 -31.19,-626.97 -352.35,-635.3z"></path>
    <path class="fil13" d="M6835.67 16580.95l-41.68 -541.37c-40.36,-524.2 81.01,-1048.17 347.75,-1501.23l2055.49 -3491.21 798.73 470.25c100.61,59.24 214.27,-53.86 155.54,-154.76l-1912.29 -3285.35 -3785.87 -49.1c-113.68,-1.47 -158.57,146.64 -63.19,208.53l921.99 598.23 -955.81 1623.43c-382.78,650.16 -375.84,1458.41 18.07,2101.89l2461.27 4020.69z"></path>
    <path class="fil14" d="M10065.16 3662.41l489.68 234.59c474.15,227.14 867.24,594.24 1126.22,1051.77l1995.75 3525.72 -806.62 456.59c-101.61,57.51 -60.49,212.5 56.25,212.08l3801.34 -13.41 1935.46 -3254.12c58.12,-97.71 -47.7,-210.64 -148.99,-158.99l-979.08 499.36 -928.03 -1639.48c-371.66,-656.57 -1075.1,-1054.69 -1829.33,-1035.29l-4712.65 121.18z"></path>
   </g>
   <g>
    <g>
     <path class="fil15" d="M5296.69 15324.76l-33.92 -452.39c-12.62,-168.25 110.04,-316.18 277.69,-335.16 383.7,-43.46 1061.5,-98.61 1587.48,-24.63 173.77,24.44 302.37,174.26 302.37,349.75l0 462.43 -467.9 0 15.77 -236.51c12.74,-191.13 -128.96,-357.98 -319.72,-375.43 -199.52,-18.24 -468.93,-25.36 -759.94,16.5 -184.49,26.54 -306.15,206.01 -260.94,386.83l52.15 208.61 -393.04 0z"></path>
     <polygon class="fil16" points="8978.6,24227.49 3950.44,24120.99 3592.67,16432.73 9243.31,16101.21 "></polygon>
     <path class="fil4" d="M9248.26 15949.3l-5647.67 240.26 619.99 -776.47c117.42,-147.05 311.27,-236.15 520.83,-239.38l3409.78 -52.61c117.19,-1.81 230.23,39.08 310.79,112.41l786.28 715.79z"></path>
     <path class="fil5" d="M3950.44 24120.99l5028.16 106.5 -912.32 687.43c-70.2,52.9 -154.67,81.51 -241.36,81.78l-2895.02 9.12c-114.12,0.36 -223.15,-48.37 -301.08,-134.56l-678.38 -750.27z"></path>
     <path class="fil17" d="M3030.48 16448.26l135.08 -404.13c33.86,-101.3 159.92,-173.05 309.02,-175.89l5816.92 -110.69c163.44,-3.11 308.94,77.13 343.98,189.7l157.61 506.3c45.02,144.62 -108.21,279.08 -318.39,279.36l-6109.6 8.53c-219.02,0.3 -384.31,-144.51 -334.62,-293.18z"></path>
     <path class="fil5" d="M4628.48 23952.8c-44.99,0 -82.02,-35.4 -84.06,-80.34l-291.84 -6457.16c-2.17,-47.91 36.08,-87.93 84.04,-87.93 45,0 82.02,35.39 84.06,80.34l291.85 6457.15c2.16,47.91 -36.1,87.94 -84.05,87.94z"></path>
     <path class="fil5" d="M5404.49 23954.55c-44.98,-0.65 -81.5,-36.57 -82.89,-81.53l-199.29 -6460.68c-1.48,-47.94 37.35,-87.41 85.3,-86.72 44.98,0.64 81.5,36.56 82.89,81.53l199.3 6460.68c1.47,47.93 -37.35,87.4 -85.31,86.72z"></path>
     <path class="fil5" d="M8295.55 23952.8c44.99,0 82.02,-35.4 84.05,-80.34l291.85 -6457.16c2.16,-47.91 -36.09,-87.93 -84.05,-87.93 -44.99,0 -82.02,35.39 -84.05,80.34l-291.85 6457.15c-2.16,47.91 36.09,87.94 84.05,87.94z"></path>
     <path class="fil5" d="M7519.53 23954.55c44.99,-0.65 81.51,-36.57 82.9,-81.53l199.29 -6460.68c1.48,-47.94 -37.35,-87.41 -85.3,-86.72 -44.99,0.64 -81.5,36.56 -82.89,81.53l-199.3 6460.68c-1.48,47.93 37.35,87.4 85.3,86.72z"></path>
     <path class="fil5" d="M6429.95 23952.8l-58.04 0c-14.98,0 -27.13,-12.15 -27.13,-27.14l0 -6477.58c0,-14.99 12.15,-27.14 27.13,-27.14l58.04 0c14.98,0 27.13,12.15 27.13,27.14l0 6477.58c0,14.99 -12.15,27.14 -27.13,27.14z"></path>
    </g>
    <g>
     <path class="fil18" d="M6813.9 18386.58l396.02 728.95 296.31 -528.71c32.86,-58.63 33.87,-129.88 2.69,-189.42l-182.41 -348.39c-15.18,-28.98 -56.81,-28.54 -71.37,0.75l-126.43 254.36 -263.94 -2.25c-43.69,-0.37 -71.73,46.32 -50.87,84.71z"></path>
     <path class="fil19" d="M7447.93 18690.83l-60.93 41.73c-59,40.4 -128.97,61.74 -200.48,61.13l-551.02 -4.69 1.07 -126.06c0.14,-15.89 -20.91,-21.58 -28.8,-7.8l-256.94 448.68 251.68 449.28c7.56,13.49 28.06,8.7 28.86,-6.74l7.77 -149.29 256.22 2.18c102.62,0.87 197.35,-54.91 246.36,-145.07l306.21 -563.35z"></path>
     <path class="fil18" d="M6181.72 18138.74l433.28 -707.44 -606.03 7.74c-67.21,0.86 -129.42,35.61 -165.39,92.38l-210.51 332.17c-17.52,27.63 3.68,63.47 36.34,61.43l283.49 -17.68 130.02 229.69c21.53,38.03 75.98,38.97 98.8,1.71z"></path>
     <path class="fil18" d="M6269.44 18797.65l-829.3 -21.52 309.73 520.97c34.34,57.77 95.55,94.27 162.69,97.04l392.92 16.23c32.69,1.34 53.13,-34.93 35.04,-62.19l-157.07 -236.67 133.92 -227.45c22.17,-37.66 -4.24,-85.28 -47.93,-86.41z"></path>
     <path class="fil19" d="M5688.94 19194.61l-5.67 -73.63c-5.49,-71.3 11.01,-142.57 47.3,-204.19l279.57 -474.85 108.64 63.96c13.68,8.06 29.14,-7.33 21.16,-21.05l-260.11 -446.85 -514.93 -6.68c-15.46,-0.2 -21.56,19.95 -8.59,28.36l125.4 81.37 -130 220.81c-52.06,88.43 -51.12,198.36 2.46,285.89l334.77 546.86z"></path>
     <path class="fil20" d="M7598.19 17486.13c1.22,1.24 2.45,2.49 3.67,3.73l-3.67 -3.73z"></path>
     <path class="fil20" d="M7598.19 17486.13c1.21,2.48 2.43,4.96 3.64,7.43l-3.64 -7.43z"></path>
     <path class="fil19" d="M6128.19 17437.52l66.6 31.91c64.49,30.89 117.96,80.82 153.18,143.05l271.45 479.54 -109.71 62.11c-13.82,7.82 -8.23,28.9 7.65,28.84l517.04 -1.82 263.24 -442.6c7.91,-13.3 -6.49,-28.65 -20.26,-21.63l-133.17 67.92 -126.23 -222.99c-50.54,-89.3 -146.23,-143.45 -248.81,-140.81l-640.98 16.48z"></path>
    </g>
   </g>
   <g>
    <polygon class="fil15" points="33451.35,24177.84 29318.05,24223.27 28818.41,18136.86 33451.35,17728.07 "></polygon>
    <path class="fil4" d="M33451.35 17728.07l-4632.94 408.79 488.52 -767.67c92.52,-145.4 249.39,-237.33 421.44,-247.03l2799.61 -157.73c96.22,-5.41 190.16,30.44 258.31,98.57l665.06 665.07z"></path>
    <path class="fil5" d="M29318.05 24223.27l4133.3 -45.43 -731.05 568.59c-56.24,43.76 -124.86,68.63 -196.08,71.09l-2377.9 82c-93.74,3.23 -184.62,-32.6 -250.93,-98.92l-577.34 -577.33z"></path>
    <path class="fil21" d="M29338.7 19297.56l459.63 3593.49c10.85,84.8 86.17,146.28 171.42,139.92l2742.32 -204.65c83.92,-6.26 148.81,-76.17 148.81,-160.32l0 -3758.29c0,-96.08 -83.73,-170.71 -179.2,-159.7l-3201.95 369.45c-88.97,10.27 -152.39,91.27 -141.03,180.1z"></path>
    <polygon class="fil22" points="29613.28,18250.41 30203.75,24064.29 30930.49,24064.29 30930.49,18114.15 "></polygon>
   </g>
   <g>
    <path class="fil23" d="M12962.33 21862.53c-162.47,-610.12 -508.85,-1107.07 -932.54,-1410.08 -378.75,-270.88 -641.75,-676.59 -724.71,-1134.33 -8.73,-48.11 -19.51,-96.47 -32.4,-144.91 -195.39,-733.77 -803.39,-1208.89 -1357.99,-1061.21 -554.61,147.69 -845.81,862.25 -650.41,1596.02 39.95,150.04 97.17,289.23 167.66,414.49 224.95,399.72 298.3,869.45 187.75,1314.8 -98.8,398 -98.31,851.64 23.49,1309.06 181.67,682.22 593.28,1222.97 1085.8,1509.3 186.29,108.3 352.23,249.75 487.27,417.45 224.41,278.68 552.42,420.66 863.78,337.75 335.9,-89.44 558.42,-415.58 591.7,-807.27 18.82,-221.66 81.05,-436.76 175.5,-638.35 222.95,-475.9 279.37,-1085.85 115.1,-1702.72z"></path>
    <path class="fil24" d="M10316.75 18840.88c201.58,465.66 388.05,937.42 569.58,1411.12 45.44,118.41 88.96,237.53 132.88,356.51l65.83 178.48 64.34 179.03c42.44,119.52 86.52,238.46 127.6,358.46l123.27 359.99c79.11,241.04 160.27,481.41 234.89,723.92 37.48,121.19 77.32,241.63 112.34,363.59l106.73 365.32c137.38,488.49 262.55,980.67 362.57,1478.22l-21.4 4.53 -89.01 -369.41 -22.04 -92.37 -24.36 -91.82 -49.04 -183.54 -48.69 -183.58c-16.12,-61.22 -34.51,-121.85 -51.66,-182.8 -35.1,-121.68 -69.23,-243.62 -105.12,-365.06 -146.71,-484.86 -299.86,-967.78 -462.95,-1447.47 -83.38,-239.23 -164.7,-479.14 -249.75,-717.8l-63.28 -179.16 -64.79 -178.64c-43.13,-119.12 -86.26,-238.23 -130.59,-356.91 -86.63,-238.11 -174.97,-475.63 -265.24,-712.4 -89.03,-237.25 -180.33,-473.72 -272.31,-709.81l20.2 -8.4z"></path>
   </g>
   <g>
    <path class="fil3" d="M11079.32 22611.38c-315.27,-332.95 -708.37,-530.16 -1083.37,-576.96 -335.23,-41.83 -643.56,-209.67 -855.3,-472.92 -22.26,-27.66 -45.91,-54.78 -70.94,-81.21 -379.17,-400.42 -931.28,-493.28 -1233.18,-207.41 -301.92,285.88 -239.29,842.24 139.88,1242.66 77.53,81.88 162.29,150.88 250.65,206.39 282.03,177.17 491.81,451.38 576.02,773.61 75.25,287.97 233.04,577.11 469.41,826.73 352.53,372.29 802.37,574.89 1215.41,587.25 156.23,4.68 311.01,37.54 455.22,97.81 239.65,100.16 497.82,77.34 667.32,-83.16 182.85,-173.14 211.33,-458.04 96.54,-719.35 -64.96,-147.87 -100,-306.55 -109.84,-467.76 -23.24,-380.57 -199.06,-789.06 -517.82,-1125.68z"></path>
    <path class="fil4" d="M8345.6 21598.76c290.03,227.29 572.55,463.7 852.6,703.05 70.03,59.82 139.11,120.74 208.37,181.44l103.89 91.07 103.13 91.94c68.51,61.56 137.88,122.16 205.7,184.5l203.47 186.98c134.06,126.38 269.18,251.61 400.89,380.48 65.94,64.33 133.13,127.38 197.77,193.06l194.79 196.08c257.07,264.05 507.64,534.68 744.07,817.42l-12.06 10.28 -184.93 -204.83 -46.11 -51.29 -47.38 -50.14 -94.94 -100.09 -94.74 -100.25c-31.52,-33.48 -64.28,-65.79 -96.36,-98.73 -64.6,-65.47 -128.66,-131.43 -193.68,-196.47 -261.75,-258.51 -526.92,-513.57 -797.31,-763.11 -136.15,-123.75 -271.22,-248.65 -408.23,-371.45l-102.5 -92.39 -103.28 -91.53c-68.81,-61.06 -137.63,-122.12 -207.06,-182.48 -137.82,-121.92 -276.54,-242.85 -416.22,-362.65 -139.07,-120.53 -279.29,-239.79 -419.82,-358.56l9.94 -12.33z"></path>
   </g>
   <g>
    <path class="fil20" d="M6052.05 13765.97l57 -87.22c5.91,-9.05 18.03,-11.58 27.06,-5.66 9.04,5.9 11.58,18.02 5.68,27.05 -0.15,0.22 -0.29,0.42 -0.43,0.63l-0.23 0.31 -60.35 84.23 -0.16 0.22c-5.57,7.78 -16.39,9.55 -24.16,3.99 -7.57,-5.43 -9.44,-15.82 -4.41,-23.55z"></path>
    <path class="fil20" d="M6247.39 13478.66l61.4 -84.1c8.78,-12.04 25.67,-14.68 37.7,-5.89 12.04,8.8 14.67,25.67 5.89,37.71 -0.22,0.29 -0.43,0.56 -0.65,0.83l-0.32 0.4 -64.46 80.78 -0.24 0.3c-8.52,10.69 -24.09,12.43 -34.77,3.91 -10.39,-8.29 -12.3,-23.3 -4.55,-33.94z"></path>
    <path class="fil20" d="M6458.09 13202.27l66.04 -80.64c11.46,-14 32.12,-16.06 46.13,-4.58 14.01,11.46 16.06,32.12 4.59,46.12 -0.19,0.24 -0.38,0.48 -0.58,0.7l-0.41 0.47 -67.96 77.77 -0.31 0.35c-11.3,12.93 -30.96,14.25 -43.9,2.96 -12.68,-11.09 -14.17,-30.22 -3.6,-43.15z"></path>
    <path class="fil20" d="M6683.05 12937l69.93 -77.38c14.19,-15.7 38.42,-16.93 54.13,-2.73 15.7,14.18 16.93,38.41 2.74,54.12 -0.24,0.26 -0.48,0.51 -0.72,0.76l-0.49 0.53 -71.63 74.33 -0.37 0.39c-14.05,14.58 -37.25,15 -51.83,0.95 -14.28,-13.75 -14.94,-36.34 -1.76,-50.97z"></path>
    <path class="fil20" d="M6920.67 12682.71l73.58 -74.06c17.07,-17.19 44.84,-17.29 62.02,-0.21 17.18,17.08 17.28,44.84 0.2,62.03 -0.28,0.28 -0.57,0.57 -0.86,0.84l-0.58 0.56 -75.03 70.83 -0.43 0.4c-16.94,16 -43.65,15.24 -59.64,-1.7 -15.67,-16.59 -15.2,-42.61 0.74,-58.69z"></path>
    <path class="fil20" d="M7170.09 12439.64l76.96 -70.66c20.1,-18.45 51.34,-17.12 69.79,2.97 18.45,20.11 17.11,51.35 -2.98,69.8 -0.33,0.3 -0.67,0.61 -1.01,0.9l-0.67 0.57 -78.17 67.3 -0.5 0.44c-19.97,17.19 -50.11,14.93 -67.3,-5.04 -16.85,-19.56 -14.97,-48.94 3.88,-66.28z"></path>
    <path class="fil20" d="M7430.77 12208.37l80.38 -66.82c22.94,-19.08 56.98,-15.93 76.05,7 19.07,22.93 15.93,56.98 -7,76.05 -0.25,0.21 -0.51,0.41 -0.76,0.61l-0.76 0.61 -80.79 64.07 -0.56 0.44c-22.84,18.13 -56.05,14.29 -74.17,-8.56 -17.85,-22.5 -14.35,-55.12 7.61,-73.4z"></path>
    <path class="fil20" d="M7702.13 11989.73l83.25 -63.29c25.5,-19.38 61.89,-14.42 81.27,11.08 19.39,25.5 14.43,61.89 -11.07,81.28 -0.29,0.21 -0.56,0.42 -0.85,0.63l-0.83 0.59 -83.49 60.48 -0.61 0.44c-25.4,18.4 -60.91,12.72 -79.31,-12.68 -18.12,-25.02 -12.82,-59.91 11.64,-78.53z"></path>
    <path class="fil20" d="M7982.83 11782.96l85.93 -59.71c28.11,-19.53 66.74,-12.57 86.28,15.55 19.53,28.11 12.58,66.74 -15.54,86.28 -0.31,0.21 -0.62,0.42 -0.93,0.64l-0.9 0.59 -85.98 56.83 -0.66 0.44c-28,18.52 -65.71,10.82 -84.22,-17.18 -18.25,-27.59 -10.98,-64.66 16.02,-83.44z"></path>
    <path class="fil20" d="M8272.28 11588.31l88.57 -55.76c30.6,-19.28 71.03,-10.1 90.31,20.51 19.27,30.6 10.09,71.04 -20.52,90.31 -0.21,0.12 -0.42,0.25 -0.63,0.39l-0.98 0.59 -88.1 53.47 -0.7 0.42c-30.51,18.51 -70.24,8.79 -88.76,-21.73 -18.31,-30.18 -8.94,-69.43 20.81,-88.2z"></path>
    <path class="fil20" d="M8570.19 11406.68l90.82 -52.1c32.76,-18.79 74.54,-7.46 93.32,25.28 18.78,32.75 7.46,74.53 -25.29,93.32 -0.22,0.13 -0.44,0.25 -0.67,0.39l-1.05 0.57 -90.21 49.77 -0.73 0.4c-32.64,18.01 -73.7,6.14 -91.7,-26.49 -17.82,-32.28 -6.34,-72.85 25.51,-91.14z"></path>
    <path class="fil20" d="M8875.41 11237.37l92.9 -48.38c34.89,-18.16 77.91,-4.6 96.09,30.3 18.16,34.88 4.6,77.92 -30.3,96.08 -0.23,0.13 -0.48,0.25 -0.71,0.37l-1.11 0.56 -92.14 46.04 -0.78 0.39c-34.76,17.36 -77.03,3.26 -94.4,-31.5 -17.19,-34.4 -3.51,-76.16 30.45,-93.86z"></path>
    <path class="fil20" d="M9187.34 11080.51l94.8 -44.58c37.04,-17.44 81.19,-1.52 98.62,35.51 17.43,37.04 1.52,81.2 -35.52,98.61 -0.25,0.12 -0.51,0.24 -0.76,0.35l-1.16 0.53 -93.92 42.29 -0.81 0.37c-36.88,16.61 -80.25,0.17 -96.86,-36.73 -16.43,-36.49 -0.45,-79.35 35.61,-96.35z"></path>
    <path class="fil20" d="M9505.57 10936.65l96.66 -40.46c38.86,-16.27 83.55,2.05 99.82,40.9 16.26,38.86 -2.06,83.55 -40.91,99.82l-0.71 0.29 -0.84 0.33 -95.38 38.81 -0.85 0.35c-38.75,15.76 -82.94,-2.87 -98.71,-41.63 -15.66,-38.5 2.67,-82.4 40.92,-98.41z"></path>
    <path class="fil20" d="M9829.65 10806.28l98.22 -36.59c40.37,-15.03 85.3,5.5 100.34,45.88 15.04,40.37 -5.5,85.3 -45.88,100.34l-0.73 0.26 -0.87 0.33 -96.84 34.97 -0.87 0.3c-40.26,14.54 -84.67,-6.31 -99.21,-46.57 -14.44,-39.99 6.09,-84.1 45.84,-98.92z"></path>
    <path class="fil20" d="M10158.73 10688.88l99.61 -32.65c41.86,-13.71 86.92,9.08 100.63,50.95 13.72,41.85 -9.08,86.89 -50.94,100.63l-0.76 0.25 -0.9 0.27 -98.13 31.08 -0.91 0.29c-41.71,13.22 -86.24,-9.9 -99.45,-51.59 -13.13,-41.47 9.64,-85.7 50.85,-99.23z"></path>
    <path class="fil20" d="M10492.29 10584.67l100.86 -28.68c43.29,-12.3 88.37,12.82 100.67,56.11 12.31,43.29 -12.81,88.36 -56.1,100.66l-0.79 0.23 -0.94 0.24 -99.27 27.16 -0.94 0.25c-43.13,11.79 -87.66,-13.61 -99.45,-56.75 -11.72,-42.84 13.33,-87.09 55.96,-99.22z"></path>
    <path class="fil20" d="M10829.82 10493.8l102 -24.45c44.6,-10.68 89.42,16.81 100.11,61.4 10.69,44.6 -16.8,89.43 -61.4,100.12l-0.53 0.12 -0.97 0.23 -100.21 23.32 -0.97 0.23c-44.49,10.36 -88.94,-17.31 -99.3,-61.79 -10.31,-44.3 17.11,-88.59 61.27,-99.18z"></path>
    <path class="fil20" d="M11171.01 10417.47l102.94 -20.17c45.32,-8.87 89.26,20.67 98.14,66 8.87,45.32 -20.67,89.24 -65.99,98.12l-0.27 0.07 -0.99 0.19 -101.03 19.44 -0.99 0.19c-45.26,8.71 -89,-20.92 -97.71,-66.18 -8.71,-45.25 20.64,-88.95 65.9,-97.66z"></path>
    <path class="fil20" d="M11515.08 10355.11l103.69 -15.97c45.96,-7.09 88.95,24.43 96.03,70.39 7.09,45.96 -24.42,88.96 -70.38,96.04l-0.28 0.03 -1.02 0.16 -101.71 15.33 -1.01 0.15c-45.89,6.92 -88.7,-24.66 -95.61,-70.56 -6.92,-45.89 24.4,-88.65 70.29,-95.57z"></path>
    <path class="fil20" d="M11861.45 10306.81l104.14 -11.73c46.52,-5.22 88.48,28.26 93.71,74.78 5.24,46.53 -28.24,88.48 -74.77,93.72l-0.28 0.04 -1.04 0.1 -102.09 11.15 -1.05 0.1c-46.44,5.07 -88.2,-28.48 -93.27,-74.93 -5.06,-46.45 28.2,-88.18 74.65,-93.23z"></path>
    <path class="fil20" d="M12209.44 10272.77l104.63 -7.39c47.02,-3.32 87.83,32.11 91.16,79.11 3.32,47.03 -32.11,87.85 -79.13,91.16l-0.28 0.02 -1.07 0.08 -102.52 6.9 -1.07 0.07c-46.93,3.16 -87.54,-32.33 -90.7,-79.27 -3.16,-46.94 32.05,-87.52 78.98,-90.68z"></path>
    <path class="fil20" d="M12558.65 10253.24l101.4 -2.88c47.41,-1.33 86.92,36.02 88.27,83.41 1.34,47.42 -36.01,86.93 -83.42,88.27l-0.19 0 -1.06 0.03 -99.3 2.57 -1.05 0.04c-47.35,1.23 -86.72,-36.15 -87.95,-83.5 -1.23,-47.34 35.96,-86.71 83.3,-87.94z"></path>
    <path class="fil20" d="M12904.99 10249.24l104.94 1.73c47.1,0.78 84.66,39.59 83.89,86.68 -0.78,47.11 -39.58,84.66 -86.69,83.88l-0.79 0 -102.8 -1.35 -1.08 -0.02c-47.2,-0.6 -84.96,-39.38 -84.34,-86.57 0.62,-47.21 39.38,-84.97 86.58,-84.35l0.29 0z"></path>
    <path class="fil20" d="M13254.65 10260.09l104.76 6.07c46.71,2.7 82.38,42.77 79.68,89.48 -2.71,46.72 -42.78,82.38 -89.49,79.67l-0.77 -0.03 -102.68 -5.61 -1.05 -0.07c-46.82,-2.56 -82.7,-42.58 -80.13,-89.4 2.55,-46.82 42.58,-82.69 89.4,-80.13l0.28 0.02z"></path>
    <path class="fil20" d="M13603.5 10285.34l104.4 10.37c46.25,4.59 80.02,45.79 75.43,92.04 -4.59,46.24 -45.8,80.01 -92.04,75.43l-0.75 -0.07 -102.4 -9.82 -1.02 -0.1c-46.35,-4.43 -80.33,-45.62 -75.89,-91.97 4.45,-46.37 45.63,-80.34 91.98,-75.91l0.29 0.03z"></path>
    <path class="fil20" d="M13950.96 10324.81l103.88 14.56c45.71,6.43 77.56,48.67 71.15,94.39 -6.41,45.71 -48.66,77.56 -94.37,71.15l-0.73 -0.1 -101.93 -13.95 -1 -0.14c-45.82,-6.27 -77.88,-48.51 -71.61,-94.33 6.27,-45.82 48.51,-77.9 94.33,-71.63l0.28 0.05z"></path>
    <path class="fil20" d="M14296.49 10378.25l103.2 18.71c45.1,8.19 75.03,51.37 66.85,96.49 -8.18,45.1 -51.38,75.02 -96.48,66.84l-0.71 -0.12 -101.3 -18.03 -0.98 -0.18c-45.23,-8.05 -75.37,-51.24 -67.31,-96.45 8.04,-45.23 51.23,-75.36 96.46,-67.32l0.27 0.06z"></path>
    <path class="fil20" d="M14639.41 10446.12l102.28 23.15c43.83,9.91 71.32,53.48 61.4,97.31 -9.85,43.56 -52.93,70.98 -96.48,61.6l-1 -0.22 -100.61 -21.71 -0.94 -0.2c-44.21,-9.54 -72.31,-53.12 -62.78,-97.33 9.55,-44.2 53.12,-72.33 97.33,-62.77l0.8 0.17z"></path>
    <path class="fil20" d="M14979.19 10527.98l101.26 27.17c42.48,11.39 67.68,55.07 56.28,97.55 -11.32,42.2 -54.51,67.36 -96.74,56.49l-0.97 -0.23 -99.69 -25.69 -0.91 -0.23c-42.87,-11.05 -68.67,-54.76 -57.63,-97.64 11.05,-42.87 54.75,-68.67 97.63,-57.63l0.77 0.21z"></path>
    <path class="fil20" d="M15315.4 10623.18l100.09 31.12c41.09,12.79 64.03,56.45 51.25,97.54 -12.7,40.83 -55.89,63.75 -96.75,51.5l-0.93 -0.28 -98.62 -29.6 -0.88 -0.27c-41.49,-12.46 -65.03,-56.19 -52.58,-97.67 12.45,-41.49 56.18,-65.03 97.67,-52.58l0.75 0.24z"></path>
    <path class="fil20" d="M15647.52 10731.53l98.77 35.05c39.65,14.07 60.39,57.63 46.31,97.28 -13.98,39.39 -57.06,60.11 -96.51,46.58l-0.91 -0.32 -97.39 -33.46 -0.85 -0.31c-40.06,-13.76 -61.38,-57.4 -47.61,-97.46 13.77,-40.08 57.41,-61.38 97.47,-47.62l0.72 0.26z"></path>
    <path class="fil20" d="M15975.01 10853.02l97.15 39.25c37.89,15.3 56.19,58.4 40.89,96.29 -15.14,37.47 -57.5,55.8 -95.09,41.37l-0.9 -0.34 -96.14 -37 -0.82 -0.32c-38.57,-14.85 -57.81,-58.16 -42.97,-96.72 14.85,-38.59 58.15,-57.81 96.73,-42.98 0.26,0.1 0.89,0.35 1.15,0.45z"></path>
    <path class="fil20" d="M16296.97 10988.3l95.49 43.04c35.8,16.15 51.74,58.27 35.59,94.07 -15.97,35.42 -57.37,51.4 -92.92,36.1l-0.85 -0.37 -94.62 -40.8 -0.78 -0.34c-36.5,-15.74 -53.34,-58.09 -37.6,-94.59 15.74,-36.51 58.09,-53.35 94.6,-37.6 0.25,0.11 0.84,0.36 1.09,0.49z"></path>
    <path class="fil20" d="M16613.19 11136.25l93.67 46.85c33.71,16.86 47.37,57.87 30.51,91.57 -16.68,33.36 -56.99,47.09 -90.5,31.04l-0.81 -0.39 -92.93 -44.57 -0.74 -0.35c-34.42,-16.53 -48.94,-57.8 -32.43,-92.23 16.5,-34.41 57.79,-48.93 92.21,-32.41 0.24,0.1 0.79,0.37 1.02,0.49z"></path>
    <path class="fil20" d="M16923.13 11296.8l91.66 50.59c31.62,17.45 43.1,57.24 25.65,88.84 -17.27,31.3 -56.39,42.87 -87.84,26.19l-0.77 -0.4 -91.06 -48.31 -0.71 -0.39c-32.33,-17.14 -44.63,-57.25 -27.48,-89.57 17.16,-32.33 57.26,-44.62 89.59,-27.47 0.22,0.12 0.74,0.4 0.96,0.52z"></path>
    <path class="fil20" d="M17226.03 11470.08l89.31 54.6c29.16,17.83 38.34,55.92 20.51,85.07 -17.56,28.73 -54.8,38.08 -83.78,21.29l-0.75 -0.44 -89.19 -51.75 -0.67 -0.39c-30.13,-17.49 -40.38,-56.09 -22.9,-86.22 17.49,-30.14 56.1,-40.38 86.23,-22.9 0.33,0.19 0.92,0.54 1.24,0.74z"></path>
    <path class="fil20" d="M17520.98 11656.39l86.91 58.27c26.57,17.82 33.66,53.79 15.85,80.35 -17.55,26.17 -52.73,33.45 -79.18,16.62l-0.69 -0.44 -86.96 -55.47 -0.63 -0.39c-27.52,-17.57 -35.61,-54.11 -18.05,-81.63 17.55,-27.53 54.09,-35.6 81.62,-18.05 0.3,0.18 0.84,0.54 1.13,0.74z"></path>
    <path class="fil20" d="M17807.71 11854.92l84.31 61.92c24.01,17.62 29.18,51.39 11.55,75.4 -17.38,23.65 -50.41,29.02 -74.34,12.29l-0.64 -0.44 -84.55 -59.16 -0.58 -0.41c-24.94,-17.45 -31.02,-51.83 -13.56,-76.78 17.46,-24.94 51.83,-31.02 76.78,-13.56 0.28,0.18 0.77,0.54 1.03,0.74z"></path>
    <path class="fil20" d="M18085.42 12065.68l81.19 65.89c21.16,17.16 24.39,48.22 7.23,69.38 -16.82,20.73 -46.98,24.26 -68.08,8.25l-0.61 -0.46 -82.19 -62.46 -0.53 -0.4c-22.42,-17.05 -26.78,-49.04 -9.74,-71.46 17.04,-22.43 49.02,-26.79 71.45,-9.74 0.37,0.28 0.91,0.71 1.28,1z"></path>
    <path class="fil20" d="M18352.56 12289.45l78.12 69.43c18.09,16.08 19.72,43.78 3.64,61.87 -15.75,17.72 -42.65,19.65 -60.75,4.6l-0.53 -0.44 -79.34 -66.11 -0.47 -0.41c-19.3,-16.08 -21.91,-44.76 -5.83,-64.05 16.09,-19.3 44.77,-21.92 64.07,-5.84 0.31,0.27 0.78,0.68 1.09,0.95z"></path>
    <path class="fil20" d="M18609.15 12524.97l74.79 72.92c15.16,14.76 15.46,39.03 0.69,54.18 -14.47,14.84 -38.05,15.43 -53.25,1.57l-0.45 -0.41 -76.26 -69.77 -0.41 -0.37c-16.29,-14.89 -17.42,-40.19 -2.52,-56.47 14.91,-16.3 40.2,-17.42 56.49,-2.52 0.26,0.25 0.66,0.62 0.92,0.87z"></path>
    <path class="fil20" d="M18854.34 12772.04l71.2 76.34c12.36,13.24 11.64,34 -1.61,46.36 -12.98,12.11 -33.17,11.68 -45.61,-0.8l-0.38 -0.39 -72.91 -73.36 -0.34 -0.34c-13.42,-13.5 -13.36,-35.32 0.15,-48.74 13.5,-13.43 35.32,-13.36 48.74,0.15 0.23,0.22 0.54,0.56 0.76,0.78z"></path>
    <path class="fil20" d="M19087.25 13030.43l67.15 79.83c9.61,11.44 8.14,28.51 -3.3,38.12 -11.16,9.4 -27.7,8.21 -37.43,-2.51l-0.3 -0.34 -69.47 -76.71 -0.28 -0.31c-10.74,-11.86 -9.84,-30.17 2.02,-40.91 11.86,-10.73 30.17,-9.82 40.91,2.03 0.21,0.24 0.5,0.56 0.7,0.8z"></path>
    <path class="fil20" d="M19305.72 13300.82l62.76 83.3c6.54,8.68 4.81,21.01 -3.86,27.53 -8.44,6.36 -20.33,4.9 -27,-3.17l-0.22 -0.28 -65.85 -80.04 -0.21 -0.26c-7.68,-9.33 -6.34,-23.13 2.99,-30.8 9.34,-7.7 23.13,-6.35 30.81,2.99 0.18,0.22 0.41,0.5 0.58,0.73z"></path>
   </g>
   <g>
    <path class="fil20" d="M21544.49 13765.97l57.47 -86.88c5.78,-8.74 17.55,-11.14 26.28,-5.36 8.74,5.78 11.14,17.55 5.36,26.27 -0.1,0.15 -0.2,0.29 -0.29,0.44l-0.23 0.31 -59.87 84.56 -0.16 0.22c-5.53,7.79 -16.33,9.64 -24.13,4.12 -7.65,-5.4 -9.56,-15.92 -4.43,-23.68z"></path>
    <path class="fil20" d="M21741.37 13479.83l61.84 -83.73c8.03,-10.86 23.34,-13.18 34.21,-5.14 10.87,8.03 13.17,23.33 5.14,34.2 -0.13,0.19 -0.27,0.36 -0.4,0.54l-0.3 0.38 -64.02 81.14 -0.22 0.29c-7.8,9.89 -22.14,11.58 -32.03,3.77 -9.69,-7.64 -11.49,-21.59 -4.22,-31.45z"></path>
    <path class="fil20" d="M21953.06 13204.38l66.33 -80.32c10.21,-12.36 28.53,-14.12 40.9,-3.89 12.36,10.22 14.11,28.53 3.89,40.89 -0.11,0.13 -0.23,0.29 -0.35,0.42l-0.37 0.43 -67.66 78.08 -0.28 0.32c-10.05,11.6 -27.62,12.85 -39.23,2.81 -11.43,-9.91 -12.8,-27.14 -3.23,-38.74z"></path>
    <path class="fil20" d="M22178.97 12940.22l70.21 -77.04c12.32,-13.53 33.29,-14.51 46.82,-2.19 13.53,12.33 14.5,33.3 2.17,46.83 -0.14,0.15 -0.28,0.3 -0.42,0.46l-0.44 0.45 -71.36 74.69 -0.32 0.34c-12.18,12.73 -32.37,13.2 -45.12,1.03 -12.54,-12.01 -13.15,-31.81 -1.54,-44.57z"></path>
    <path class="fil20" d="M22417.46 12687.1l73.8 -73.69c14.56,-14.52 38.14,-14.5 52.67,0.05 14.53,14.55 14.51,38.13 -0.04,52.66 -0.17,0.17 -0.34,0.34 -0.5,0.49l-0.51 0.49 -74.79 71.2 -0.37 0.36c-14.4,13.71 -37.19,13.15 -50.9,-1.25 -13.51,-14.19 -13.14,-36.55 0.64,-50.31z"></path>
    <path class="fil20" d="M22667.63 12445.29l77.16 -70.26c16.89,-15.38 43.03,-14.14 58.4,2.74 15.37,16.87 14.15,43.01 -2.74,58.38 -0.19,0.19 -0.38,0.36 -0.58,0.53l-0.57 0.49 -77.96 67.69 -0.42 0.37c-16.72,14.5 -42.05,12.73 -56.57,-3.99 -14.3,-16.47 -12.74,-41.33 3.28,-55.95z"></path>
    <path class="fil20" d="M22928.67 12215.01l80.27 -66.78c19.29,-16.05 47.94,-13.41 63.99,5.88 16.04,19.27 13.42,47.94 -5.87,63.98 -0.23,0.17 -0.45,0.36 -0.67,0.53l-0.64 0.52 -80.89 64.12 -0.47 0.36c-19.13,15.17 -46.93,11.95 -62.09,-7.17 -14.93,-18.86 -12,-46.13 6.37,-61.44z"></path>
    <path class="fil20" d="M23200.12 11997.12l83.43 -62.85c21.3,-16.04 51.58,-11.78 67.63,9.52 16.05,21.29 11.79,51.58 -9.51,67.62 -0.12,0.11 -0.24,0.19 -0.35,0.27l-0.72 0.53 -83.32 60.9 -0.5 0.36c-21.2,15.49 -50.94,10.87 -66.43,-10.32 -15.35,-21 -10.93,-50.42 9.77,-66.03z"></path>
    <path class="fil20" d="M23481.35 11791.82l86.06 -59.26c23.11,-15.91 54.74,-10.07 70.64,13.04 15.92,23.1 10.08,54.74 -13.03,70.63 -0.13,0.1 -0.25,0.19 -0.38,0.27l-0.76 0.51 -85.84 57.28 -0.54 0.36c-22.99,15.34 -54.06,9.13 -69.4,-13.85 -15.2,-22.77 -9.22,-53.52 13.25,-68.98z"></path>
    <path class="fil20" d="M23771.13 11598.54l88.49 -55.59c24.93,-15.66 57.83,-8.16 73.49,16.77 15.66,24.92 8.15,57.83 -16.77,73.49 -0.14,0.08 -0.28,0.17 -0.41,0.25l-0.81 0.49 -88.17 53.64 -0.56 0.34c-24.79,15.08 -57.12,7.21 -72.2,-17.59 -14.94,-24.55 -7.32,-56.55 16.94,-71.8z"></path>
    <path class="fil20" d="M24068.8 11417.48l90.74 -51.91c26.75,-15.32 60.84,-6.04 76.15,20.72 15.3,26.74 6.03,60.83 -20.72,76.13 -0.15,0.09 -0.3,0.17 -0.44,0.26l-0.86 0.47 -90.3 49.95 -0.59 0.32c-26.61,14.73 -60.1,5.09 -74.82,-21.52 -14.57,-26.35 -5.21,-59.51 20.84,-74.42z"></path>
    <path class="fil20" d="M24373.74 11248.75l92.81 -48.2c28.57,-14.84 63.77,-3.7 78.61,24.88 14.84,28.57 3.71,63.76 -24.87,78.61 -0.16,0.08 -0.31,0.15 -0.47,0.23l-0.91 0.46 -92.24 46.21 -0.63 0.33c-28.41,14.23 -62.99,2.75 -77.23,-25.67 -14.11,-28.16 -2.91,-62.38 24.93,-76.85z"></path>
    <path class="fil20" d="M24685.36 11092.47l94.71 -44.42c30.4,-14.27 66.61,-1.19 80.88,29.22 14.26,30.4 1.17,66.61 -29.23,80.87 -0.17,0.09 -0.33,0.16 -0.5,0.24l-0.96 0.43 -94.01 42.45 -0.67 0.31c-30.22,13.64 -65.79,0.22 -79.44,-30.01 -13.52,-29.95 -0.41,-65.16 29.22,-79.09z"></path>
    <path class="fil20" d="M25003.11 10948.81l96.43 -40.62c32.23,-13.56 69.35,1.56 82.92,33.79 13.57,32.21 -1.55,69.35 -33.77,82.91 -0.18,0.08 -0.35,0.15 -0.53,0.21l-1.02 0.43 -95.61 38.64 -0.69 0.28c-32.03,12.96 -68.49,-2.52 -81.44,-34.54 -12.83,-31.74 2.28,-67.84 33.71,-81.1z"></path>
    <path class="fil20" d="M25326.43 10817.92l98.01 -36.75c34.03,-12.76 71.96,4.49 84.72,38.52 12.77,34.02 -4.48,71.96 -38.51,84.73 -0.18,0.07 -0.37,0.14 -0.56,0.2l-1.06 0.38 -97.06 34.82 -0.73 0.25c-33.82,12.14 -71.07,-5.45 -83.2,-39.27 -12.02,-33.51 5.18,-70.4 38.39,-82.88z"></path>
    <path class="fil20" d="M25654.99 10700.55l99.52 -32.48c35.36,-11.55 73.39,7.76 84.93,43.12 11.54,35.35 -7.77,73.38 -43.13,84.91l-0.48 0.16 -0.76 0.25 -98.23 31.25 -0.77 0.25c-35.24,11.21 -72.89,-8.27 -84.11,-43.51 -11.16,-35.07 8.11,-72.55 43.03,-83.95z"></path>
    <path class="fil20" d="M25988.21 10596.9l100.76 -28.5c36.47,-10.33 74.4,10.88 84.72,47.35 10.32,36.48 -10.89,74.42 -47.36,84.73l-0.49 0.14 -0.79 0.22 -99.38 27.31 -0.8 0.22c-36.33,9.99 -73.9,-11.37 -83.88,-47.72 -9.95,-36.17 11.2,-73.56 47.22,-83.75z"></path>
    <path class="fil20" d="M26325.36 10506.6l101.84 -24.46c37.54,-9.02 75.29,14.11 84.31,51.67 9.02,37.54 -14.11,75.29 -51.66,84.31l-0.51 0.12 -0.82 0.18 -100.37 23.32 -0.82 0.19c-37.4,8.69 -74.77,-14.58 -83.46,-51.98 -8.64,-37.24 14.4,-74.43 51.49,-83.35z"></path>
    <path class="fil20" d="M26665.93 10429.85l102.75 -20.34c38.58,-7.64 76.04,17.45 83.68,56.02 7.64,38.57 -17.45,76.04 -56.02,83.68l-0.52 0.11 -0.84 0.15 -101.21 19.26 -0.85 0.16c-38.42,7.31 -75.5,-17.9 -82.81,-56.34 -7.28,-38.23 17.7,-75.14 55.82,-82.7z"></path>
    <path class="fil20" d="M27009.38 10366.9l103.51 -16.18c39.56,-6.17 76.63,20.88 82.82,60.45 6.17,39.55 -20.88,76.63 -60.44,82.8l-0.53 0.08 -0.88 0.13 -101.89 15.14 -0.87 0.13c-39.39,5.84 -76.06,-21.33 -81.92,-60.73 -5.82,-39.19 21.11,-75.72 60.2,-81.82z"></path>
    <path class="fil20" d="M27355.23 10318.25l104 -11.63c40.17,-4.51 76.38,24.41 80.88,64.59 4.5,40.16 -24.42,76.38 -64.59,80.88l-0.18 0.01 -0.9 0.11 -102.23 11.19 -0.9 0.1c-40.11,4.4 -76.19,-24.57 -80.58,-64.68 -4.4,-40.1 24.38,-76.17 64.5,-80.57z"></path>
    <path class="fil20" d="M27702.75 10284.42l104.49 -7.34c40.56,-2.84 75.75,27.73 78.6,68.29 2.85,40.55 -27.73,75.74 -68.29,78.6l-0.18 0.02 -0.92 0.05 -102.66 6.96 -0.92 0.05c-40.5,2.74 -75.55,-27.86 -78.3,-68.34 -2.74,-40.5 27.69,-75.55 68.18,-78.29z"></path>
    <path class="fil20" d="M28051.48 10265.05l101.25 -2.87c40.88,-1.15 74.96,31.04 76.12,71.93 1.17,40.87 -31.04,74.96 -71.92,76.11l-0.18 0.02 -0.91 0.01 -99.45 2.57 -0.91 0.02c-40.81,1.07 -74.74,-31.16 -75.8,-71.98 -1.06,-40.8 30.99,-74.74 71.8,-75.81z"></path>
    <path class="fil20" d="M28397.33 10260.37l104.81 1.42c41.13,0.56 74.01,34.35 73.46,75.47 -0.56,41.14 -34.35,74.03 -75.48,73.47l-0.18 0 -0.94 -0.02 -102.94 -1.66 -0.93 -0.01c-41.06,-0.66 -73.81,-34.46 -73.15,-75.52 0.66,-41.05 34.29,-73.81 75.35,-73.15z"></path>
    <path class="fil20" d="M28746.57 10270.2l104.66 5.76c41.3,2.27 72.95,37.61 70.67,78.92 -2.28,41.29 -37.6,72.93 -78.91,70.66l-0.18 -0.02 -0.93 -0.05 -102.79 -5.91 -0.93 -0.06c-41.23,-2.38 -72.72,-37.72 -70.35,-78.94 2.38,-41.23 37.54,-72.75 78.76,-70.36z"></path>
    <path class="fil20" d="M29095.1 10294.43l104.32 10.04c41.42,3.99 71.75,40.8 67.77,82.21 -3.99,41.41 -40.8,71.75 -82.21,67.76l-0.19 -0.02 -0.91 -0.08 -102.47 -10.13 -0.91 -0.09c-41.34,-4.09 -71.53,-40.9 -67.45,-82.23 4.08,-41.34 40.72,-71.54 82.05,-67.46z"></path>
    <path class="fil20" d="M29442.25 10333.37l103.79 14.56c40.97,5.75 69.54,43.64 63.79,84.61 -5.75,40.99 -43.63,69.55 -84.61,63.8l-0.66 -0.09 -102.03 -13.96 -0.9 -0.12c-41.09,-5.63 -69.84,-43.51 -64.22,-84.6 5.63,-41.1 43.5,-69.85 84.6,-64.24l0.24 0.04z"></path>
    <path class="fil20" d="M29787.44 10386.75l103.11 18.7c40.4,7.32 67.22,46.03 59.89,86.44 -7.33,40.41 -46.03,67.23 -86.44,59.89l-0.64 -0.1 -101.4 -18.06 -0.88 -0.15c-40.53,-7.22 -67.54,-45.92 -60.32,-86.43 7.21,-40.54 45.91,-67.54 86.44,-60.34l0.24 0.05z"></path>
    <path class="fil20" d="M30130.18 10453.86l102.26 22.8c39.78,8.86 64.85,48.29 55.98,88.07 -8.86,39.78 -48.29,64.84 -88.07,55.98l-0.63 -0.14 -100.62 -22.06 -0.85 -0.19c-39.91,-8.76 -65.16,-48.21 -56.41,-88.1 8.76,-39.9 48.2,-65.17 88.1,-56.41l0.24 0.05z"></path>
    <path class="fil20" d="M30469.95 10534.52l101.27 26.82c39.09,10.34 62.4,50.42 52.05,89.51 -10.35,39.12 -50.44,62.42 -89.53,52.07l-0.61 -0.17 -99.68 -26.04 -0.84 -0.22c-39.22,-10.23 -62.71,-50.34 -52.47,-89.57 10.25,-39.21 50.35,-62.7 89.57,-52.45l0.24 0.05z"></path>
    <path class="fil20" d="M30806.18 10628.69l100.03 31.09c38.06,11.84 59.31,52.28 47.47,90.35 -11.75,37.82 -51.77,59.05 -89.61,47.7l-0.87 -0.25 -98.68 -29.63 -0.82 -0.25c-38.45,-11.54 -60.26,-52.07 -48.71,-90.52 11.54,-38.43 52.06,-60.25 90.51,-48.71l0.68 0.22z"></path>
    <path class="fil20" d="M31138.1 10736.95l98.7 35.02c36.67,13.02 55.85,53.3 42.84,89.96 -12.93,36.44 -52.78,55.61 -89.26,43.09l-0.84 -0.29 -97.45 -33.5 -0.8 -0.27c-37.06,-12.75 -56.78,-53.13 -44.04,-90.19 12.74,-37.07 53.12,-56.78 90.19,-44.05l0.66 0.23z"></path>
    <path class="fil20" d="M31465.42 10858.23l97.23 38.89c35.25,14.1 52.39,54.11 38.29,89.37 -14.01,35.01 -53.6,52.16 -88.69,38.55l-0.8 -0.32 -96.07 -37.34 -0.77 -0.29c-35.65,-13.86 -53.32,-53.99 -39.47,-89.65 13.86,-35.64 54,-53.32 89.65,-39.47l0.63 0.26z"></path>
    <path class="fil20" d="M31787.64 10992.35l95.58 42.73c33.8,15.1 48.95,54.75 33.85,88.54 -15.01,33.59 -54.25,48.76 -87.91,34.14l-0.78 -0.34 -94.52 -41.14 -0.74 -0.32c-34.21,-14.88 -49.87,-54.69 -34.99,-88.89 14.89,-34.21 54.69,-49.87 88.9,-34.99l0.61 0.27z"></path>
    <path class="fil20" d="M32104 11139.61l93.57 46.96c31.77,15.95 44.6,54.63 28.66,86.4 -15.75,31.39 -53.68,44.29 -85.23,29.24l-0.78 -0.37 -93.03 -44.46 -0.7 -0.33c-32.58,-15.58 -46.37,-54.62 -30.8,-87.19 15.58,-32.58 54.61,-46.36 87.19,-30.79 0.27,0.14 0.85,0.41 1.12,0.54z"></path>
    <path class="fil20" d="M32413.59 11300.5l91.55 50.7c29.49,16.33 40.16,53.48 23.83,82.97 -16.13,29.13 -52.57,39.91 -81.89,24.43l-0.72 -0.39 -91.18 -48.22 -0.66 -0.36c-30.3,-16.01 -41.87,-53.56 -25.84,-83.85 16.01,-30.3 53.56,-41.86 83.85,-25.83 0.26,0.13 0.8,0.42 1.06,0.55z"></path>
    <path class="fil20" d="M32716.26 11473.84l89.36 54.41c27.22,16.57 35.85,52.08 19.28,79.31 -16.38,26.88 -51.22,35.64 -78.31,19.88l-0.68 -0.4 -89.14 -51.95 -0.62 -0.37c-28.02,-16.32 -37.49,-52.29 -21.17,-80.3 16.33,-28.02 52.29,-37.49 80.31,-21.16 0.24,0.14 0.73,0.44 0.97,0.58z"></path>
    <path class="fil20" d="M33011.4 11659.52l86.98 58.08c24.98,16.69 31.7,50.46 15.02,75.43 -16.48,24.67 -49.62,31.54 -74.51,15.62l-0.64 -0.4 -86.9 -55.66 -0.58 -0.38c-25.76,-16.5 -33.27,-50.76 -16.77,-76.51 16.49,-25.77 50.75,-33.28 76.51,-16.77 0.22,0.13 0.68,0.44 0.89,0.59z"></path>
    <path class="fil20" d="M33298.37 11857.42l84.39 61.74c22.76,16.66 27.71,48.6 11.06,71.35 -16.44,22.48 -47.81,27.58 -70.51,11.67l-0.59 -0.42 -84.47 -59.34 -0.55 -0.39c-23.52,-16.52 -29.2,-49 -12.67,-72.52 16.53,-23.54 49,-29.2 72.53,-12.68 0.2,0.15 0.61,0.44 0.81,0.59z"></path>
    <path class="fil20" d="M33576.47 12067.47l81.58 65.35c20.57,16.49 23.89,46.52 7.41,67.08 -16.28,20.33 -45.78,23.81 -66.33,8.02l-0.54 -0.43 -81.81 -63 -0.51 -0.39c-21.33,-16.42 -25.3,-47.01 -8.88,-68.33 16.42,-21.34 47.01,-25.31 68.34,-8.9 0.18,0.16 0.56,0.44 0.74,0.6z"></path>
    <path class="fil20" d="M33844.55 12289.98l78.12 69.41c17.82,15.82 19.43,43.1 3.6,60.92 -15.51,17.45 -42.01,19.36 -59.83,4.53l-0.52 -0.44 -79.35 -66.15 -0.46 -0.37c-19,-15.84 -21.57,-44.1 -5.72,-63.1 15.84,-18.99 44.09,-21.56 63.09,-5.72 0.31,0.25 0.77,0.66 1.07,0.92z"></path>
    <path class="fil20" d="M34101.15 12525.43l74.8 72.9c14.91,14.53 15.22,38.4 0.69,53.32 -14.24,14.6 -37.45,15.2 -52.41,1.53l-0.44 -0.4 -76.26 -69.77 -0.4 -0.37c-16.03,-14.68 -17.14,-39.55 -2.47,-55.6 14.68,-16.03 39.56,-17.13 55.59,-2.45 0.27,0.23 0.65,0.59 0.9,0.84z"></path>
    <path class="fil20" d="M34346.36 12772.44l71.21 76.32c12.16,13.03 11.45,33.44 -1.57,45.58 -12.77,11.92 -32.62,11.48 -44.85,-0.81l-0.37 -0.37 -72.9 -73.35 -0.34 -0.36c-13.2,-13.28 -13.13,-34.73 0.15,-47.94 13.28,-13.19 34.74,-13.12 47.94,0.16 0.21,0.21 0.53,0.55 0.73,0.77z"></path>
    <path class="fil20" d="M34579.3 13030.76l67.35 79.67c9.55,11.3 8.13,28.21 -3.17,37.78 -11.07,9.35 -27.54,8.18 -37.19,-2.5l-0.3 -0.34 -69.27 -76.88 -0.28 -0.32c-10.51,-11.67 -9.58,-29.66 2.09,-40.16 11.68,-10.52 29.67,-9.59 40.18,2.09 0.17,0.19 0.42,0.48 0.59,0.66z"></path>
    <path class="fil20" d="M34798.12 13300.85l62.78 83.29c6.53,8.66 4.8,20.97 -3.86,27.5 -8.42,6.35 -20.31,4.88 -26.96,-3.18l-0.22 -0.28 -65.84 -80.06 -0.21 -0.25c-7.66,-9.32 -6.32,-23.08 3,-30.74 9.32,-7.66 23.08,-6.33 30.73,2.99 0.19,0.22 0.41,0.51 0.58,0.73z"></path>
   </g>
  </g>
 </g>
</svg>